<?xml version="1.0" standalone="no"?>
<!DOCTYPE svg PUBLIC "-//W3C//DTD SVG 20010904//EN"
 "http://www.w3.org/TR/2001/REC-SVG-20010904/DTD/svg10.dtd">
<svg version="1.0" xmlns="http://www.w3.org/2000/svg"
 width="413.000000pt" height="320.000000pt" viewBox="63 50 350.000000 150.000000"
 preserveAspectRatio="xMidYMid meet">

<g transform="translate(0.000000,320.000000) scale(0.100000,-0.100000)"
fill="#000000" stroke="none">
<path d="M2461 2280 c-236 -50 -379 -175 -411 -362 -21 -121 15 -235 101 -312
84 -75 173 -110 459 -176 150 -35 200 -69 200 -136 0 -24 -8 -39 -30 -58 -47
-39 -100 -49 -230 -43 -127 6 -214 29 -333 87 -40 20 -71 30 -76 24 -14 -15
-111 -238 -111 -255 0 -17 115 -75 205 -103 145 -45 392 -60 540 -31 149 28
290 117 351 220 58 100 67 253 19 350 -61 126 -194 197 -480 255 -191 39 -246
68 -248 132 -2 79 55 118 183 126 111 6 225 -16 326 -62 42 -20 79 -35 80 -33
4 3 114 269 114 274 0 10 -137 63 -211 83 -66 18 -118 23 -244 26 -88 1 -180
-1 -204 -6z"/>
<path d="M770 2120 l0 -150 205 0 205 0 0 -442 c0 -244 3 -480 7 -525 l6 -83
183 0 184 0 0 525 0 525 205 0 205 0 0 150 0 150 -600 0 -600 0 0 -150z"/>
</g>
</svg>
